<?xml version="1.0" standalone="no"?>
<!DOCTYPE svg PUBLIC "-//W3C//DTD SVG 20010904//EN"
 "http://www.w3.org/TR/2001/REC-SVG-20010904/DTD/svg10.dtd">
<svg version="1.0" xmlns="http://www.w3.org/2000/svg"
 width="300.000000pt" height="299.000000pt" viewBox="0 0 300.000000 299.000000"
 preserveAspectRatio="xMidYMid meet">
<metadata>
Created by potrace 1.10, written by Peter Selinger 2001-2011
</metadata>
<g transform="translate(0.000000,299.000000) scale(0.100000,-0.100000)"
fill="#000000" stroke="none">
<path d="M1330 2960 c-491 -68 -914 -369 -1133 -806 -163 -324 -196 -714 -92
-1079 33 -118 149 -350 225 -450 217 -289 528 -491 870 -566 390 -85 802 -6
1138 218 101 67 269 226 346 326 295 386 380 896 226 1358 -76 228 -184 404
-355 574 -208 208 -457 344 -743 406 -111 23 -374 34 -482 19z m79 -797 c40
-142 80 -282 88 -311 8 -30 17 -51 19 -49 4 4 103 351 165 580 l10 37 229 0
229 0 10 -37 c6 -21 26 -103 45 -183 19 -80 49 -203 66 -275 17 -71 45 -186
61 -255 17 -69 41 -171 55 -226 13 -56 24 -105 24 -108 0 -4 -93 -5 -207 -4
l-207 3 -47 210 c-26 116 -52 236 -59 268 -6 32 -14 56 -17 54 -4 -4 -48 -149
-144 -470 l-20 -67 -196 2 -196 3 -65 215 c-35 118 -71 241 -79 273 -9 32 -17
56 -19 55 -1 -2 -28 -118 -59 -258 -31 -140 -58 -263 -61 -272 -5 -16 -24 -18
-210 -18 -113 0 -204 4 -204 9 0 10 248 1049 255 1069 3 9 59 12 233 12 l229
0 72 -257z m1011 -1323 l0 -180 -905 0 -905 0 0 180 0 180 905 0 905 0 0 -180z"/>
</g>
</svg>
